<svg width="159.20234374999998px" height="77.6px" xmlns="http://www.w3.org/2000/svg" viewBox="170.39882812500002 36.2 159.20234374999998 77.6" style="background: rgba(0, 0, 0, 0);" preserveAspectRatio="xMidYMid"><defs><linearGradient id="editing-outline-gradient" x1="-0.41354545764260087" x2="1.4135454576426008" y1="0.09326335692419985" y2="0.9067366430758002"><stop offset="0" stop-color="#ee4208"></stop><stop offset="1" stop-color="#4139ff"></stop></linearGradient><filter id="editing-outline" x="-100%" y="-100%" width="300%" height="300%"><feMorphology in="SourceGraphic" operator="dilate" radius="1" result="outline"></feMorphology><feComposite operator="out" in="outline" in2="SourceAlpha"></feComposite></filter></defs><g filter="url(#editing-outline)"><g transform="translate(202.21437573432922, 95.26499938964844)"><path d="M5.00 0.73L5.00 0.73L5.00 0.73Q3.51 0.73 2.75 0L2.75 0L2.75 0Q2.00-0.73 2.00-2.02L2.00-2.02L2.05-2.62L2.05-2.62Q2.05-2.83 1.94-2.83L1.94-2.83L1.78-2.73L1.78-2.73Q1.13-1.65 0.43-0.74L0.43-0.74L0.43-0.74Q-0.27 0.16-0.65 0.54L-0.65 0.54L-1.03 0.89L-1.03 0.89Q-1.40 1.24-1.59 1.24L-1.59 1.24L-1.59 1.24Q-1.78 1.24-1.78 0.92L-1.78 0.92L-1.78 0.92Q-1.78 0.49-1.51-0.14L-1.51-0.14L-1.51-0.14Q-1.11-1.03-0.39-2.52L-0.39-2.52L-0.39-2.52Q0.32-4.02 2.47-7.84L2.47-7.84L2.47-7.84Q4.62-11.66 6.64-14.58L6.64-14.58L6.64-14.58Q8.69-17.55 9.83-18.63L9.83-18.63L9.83-18.63Q10.23-19.04 10.45-19.04L10.45-19.04L10.45-19.04Q10.58-19.04 10.58-18.82L10.58-18.82L10.58-18.82Q10.58-18.77 10.53-18.44L10.53-18.44L10.53-18.44Q10.29-17.36 8.61-14.47L8.61-14.47L8.61-14.47Q5.26-9.02 3.75-5.62L3.75-5.62L3.75-5.62Q2.75-3.70 2.75-2.08L2.75-2.08L2.75-2.08Q2.75-1.16 3.24-0.58L3.24-0.58L3.24-0.58Q3.73 0 4.59 0L4.59 0L4.59 0Q5.83 0 7.01-1.00L7.01-1.00L7.01-1.00Q8.18-2.00 8.96-3.40L8.96-3.40L8.96-3.40Q9.75-4.81 10.23-6.26L10.23-6.26L10.23-6.26Q10.72-7.72 10.72-8.72L10.72-8.72L10.72-8.72Q10.72-11.12 8.51-11.64L8.51-11.64L8.51-11.64Q8.48-11.74 8.48-11.85L8.48-11.85L8.48-11.85Q8.48-12.18 8.86-12.23L8.86-12.23L8.86-12.23Q10.94-12.23 12.55-13.78L12.55-13.78L12.55-13.78Q14.18-15.34 14.18-17.36L14.18-17.36L14.18-17.36Q14.18-18.50 13.34-19.37L13.34-19.37L13.34-19.37Q12.50-20.25 10.23-20.25L10.23-20.25L10.23-20.25Q7.78-20.25 6.26-18.90L6.26-18.90L6.26-18.90Q4.75-17.55 4.75-15.82L4.75-15.82L4.75-15.82Q4.75-15.34 4.94-14.93L4.94-14.93L4.94-14.93Q5.05-14.71 5.05-14.58L5.05-14.58L5.05-14.58Q5.05-14.42 4.89-14.42L4.89-14.42L4.89-14.42Q4.75-14.42 4.64-14.47L4.64-14.47L4.64-14.47Q4.46-14.55 4.18-14.69L4.18-14.69L4.18-14.69Q3.92-14.82 3.47-15.36L3.47-15.36L3.47-15.36Q3.02-15.90 3.02-16.55L3.02-16.55L3.02-16.55Q3.02-18.33 5.21-19.62L5.21-19.62L5.21-19.62Q7.40-20.90 10.50-20.90L10.50-20.90L10.50-20.90Q10.83-20.90 11.25-20.87L11.25-20.87L11.25-20.87Q11.66-20.84 12.61-20.63L12.61-20.63L12.61-20.63Q13.55-20.41 14.27-20.05L14.27-20.05L14.27-20.05Q14.98-19.68 15.55-18.90L15.55-18.90L15.55-18.90Q16.12-18.12 16.12-17.06L16.12-17.06L16.12-17.06Q16.12-15.96 15.59-15.03L15.59-15.03L15.59-15.03Q15.07-14.09 14.19-13.46L14.19-13.46L14.19-13.46Q13.31-12.82 12.35-12.42L12.35-12.42L12.35-12.42Q11.39-12.02 10.37-11.80L10.37-11.80L10.37-11.80Q10.18-11.72 10.18-11.64L10.18-11.64L10.18-11.64Q10.18-11.58 10.34-11.50L10.34-11.50L10.34-11.50Q10.42-11.45 10.58-11.37L10.58-11.37L10.58-11.37Q10.75-11.29 11.14-10.94L11.14-10.94L11.14-10.94Q11.53-10.58 11.84-10.17L11.84-10.17L11.84-10.17Q12.15-9.75 12.39-9.02L12.39-9.02L12.39-9.02Q12.64-8.29 12.64-7.48L12.64-7.48L12.64-7.48Q12.64-4.37 10.33-1.82L10.33-1.82L10.33-1.82Q8.02 0.73 5.00 0.73ZM19.55-9.15L19.55-9.15L19.55-9.15Q19.87-9.83 19.87-10.34L19.87-10.34L19.87-10.34Q19.87-10.77 19.60-10.77L19.60-10.77L19.60-10.77Q19.44-10.77 19.24-10.68L19.24-10.68L19.24-10.68Q19.04-10.58 18.93-10.48L18.93-10.48L18.79-10.37L18.79-10.37Q17.95-9.64 16.70-7.71L16.70-7.71L16.70-7.71Q15.44-5.78 15.44-5.24L15.44-5.24L15.44-5.24Q15.44-5.13 15.50-5.13L15.50-5.13L15.50-5.13Q15.66-5.13 16.21-5.40L16.21-5.40L16.21-5.40Q16.77-5.67 17.81-6.67L17.81-6.67L17.81-6.67Q18.85-7.67 19.55-9.15ZM18.33-2.97L18.33-2.97L18.33-2.97Q19.76-4.29 22.44-7.34L22.44-7.34L22.44-7.34Q22.52-7.42 22.57-7.42L22.57-7.42L22.57-7.42Q22.63-7.42 22.63-7.32L22.63-7.32L22.63-7.32Q22.63-6.80 22.22-6.32L22.22-6.32L22.22-6.32Q20.22-4.10 18.68-2.62L18.68-2.62L18.68-2.62Q17.55-1.48 15.98-0.45L15.98-0.45L15.98-0.45Q14.42 0.59 13.39 0.59L13.39 0.59L13.39 0.59Q12.15 0.59 12.15-1.13L12.15-1.13L12.15-1.13Q12.15-4.00 14.27-7.13L14.27-7.13L14.27-7.13Q16.39-10.26 19.17-11.37L19.17-11.37L19.17-11.37Q20.33-11.85 21.28-11.85L21.28-11.85L21.28-11.85Q22.33-11.85 22.33-11.02L22.33-11.02L22.33-11.02Q22.33-9.45 20.11-7.42L20.11-7.42L20.11-7.42Q17.90-5.40 15.15-4.35L15.15-4.35L15.15-4.35Q15.04-4.32 14.96-4.16L14.96-4.16L14.96-4.16Q14.55-3.05 14.55-2.19L14.55-2.19L14.55-2.19Q14.55-1.22 15.28-1.22L15.28-1.22L15.28-1.22Q16.44-1.22 18.33-2.97ZM27.73-13.15L27.73-13.15L27.73-13.15Q29.65-14.50 31.17-16.21L31.17-16.21L31.17-16.21Q32.70-17.93 33.49-19.37L33.49-19.37L33.49-19.37Q34.29-20.82 34.70-21.87L34.70-21.87L34.70-21.87Q35.10-22.92 35.10-23.38L35.10-23.38L35.10-23.38Q35.10-23.65 34.91-23.65L34.91-23.65L34.91-23.65Q34.53-23.65 33.99-23.11L33.99-23.11L33.99-23.11Q32.97-22.09 31.67-20.14L31.67-20.14L31.67-20.14Q30.38-18.20 29.58-16.81L29.58-16.81L29.58-16.81Q28.78-15.42 27.51-13.10L27.51-13.10L27.51-13.10Q27.62-13.10 27.73-13.15ZM24.84-4.08L24.84-4.08L24.84-4.08Q25.97-5.21 27.84-7.34L27.84-7.34L27.84-7.34Q27.92-7.42 27.97-7.42L27.97-7.42L27.97-7.42Q28.03-7.42 28.03-7.32L28.03-7.32L28.03-7.32Q28.03-6.80 27.62-6.32L27.62-6.32L27.62-6.32Q25.62-4.10 24.08-2.62L24.08-2.62L24.08-2.62Q20.71 0.57 19.79 0.57L19.79 0.57L19.79 0.57Q19.39 0.57 19.39 0L19.39 0L19.39 0Q19.39-0.30 19.45-0.65L19.45-0.65L19.45-0.65Q19.52-1.00 19.68-1.42L19.68-1.42L19.68-1.42Q19.84-1.84 19.97-2.12L19.97-2.12L19.97-2.12Q20.09-2.40 20.32-2.93L20.32-2.93L20.32-2.93Q20.55-3.46 20.63-3.65L20.63-3.65L20.63-3.65Q21.38-5.35 25.27-12.61L25.27-12.61L25.27-12.61Q30.59-22.30 35.05-24.52L35.05-24.52L35.05-24.52Q35.69-24.84 36.34-24.84L36.34-24.84L36.34-24.84Q37.10-24.84 37.10-24.14L37.10-24.14L37.10-24.14Q37.10-22.52 35.99-20.59L35.99-20.59L35.99-20.59Q34.88-18.66 33.29-17.04L33.29-17.04L33.29-17.04Q31.70-15.42 30.17-14.20L30.17-14.20L30.17-14.20Q28.65-12.99 27.54-12.37L27.54-12.37L27.54-12.37Q27.38-12.31 27.24-12.12L27.24-12.12L27.24-12.12Q26.05-10.21 24.92-8.01L24.92-8.01L24.92-8.01Q23.79-5.80 23.22-4.54L23.22-4.54L22.68-3.29L22.68-3.29Q22.55-2.89 22.55-2.75L22.55-2.75L22.55-2.75Q22.55-2.51 22.73-2.51L22.73-2.51L22.73-2.51Q23.27-2.51 24.84-4.08ZM33.97-13.15L33.97-13.15L33.97-13.15Q35.88-14.50 37.41-16.21L37.41-16.21L37.41-16.21Q38.93-17.93 39.73-19.37L39.73-19.37L39.73-19.37Q40.53-20.82 40.93-21.87L40.93-21.87L40.93-21.87Q41.34-22.92 41.34-23.38L41.34-23.38L41.34-23.38Q41.34-23.65 41.15-23.65L41.15-23.65L41.15-23.65Q40.77-23.65 40.23-23.11L40.23-23.11L40.23-23.11Q39.20-22.09 37.91-20.14L37.91-20.14L37.91-20.14Q36.61-18.20 35.82-16.81L35.82-16.81L35.82-16.81Q35.02-15.42 33.75-13.10L33.75-13.10L33.75-13.10Q33.86-13.10 33.97-13.15ZM31.08-4.08L31.08-4.08L31.08-4.08Q32.21-5.21 34.07-7.34L34.07-7.34L34.07-7.34Q34.16-7.42 34.21-7.42L34.21-7.42L34.21-7.42Q34.26-7.42 34.26-7.32L34.26-7.32L34.26-7.32Q34.26-6.80 33.86-6.32L33.86-6.32L33.86-6.32Q31.86-4.10 30.32-2.62L30.32-2.62L30.32-2.62Q26.95 0.57 26.03 0.57L26.03 0.57L26.03 0.57Q25.62 0.57 25.62 0L25.62 0L25.62 0Q25.62-0.30 25.69-0.65L25.69-0.65L25.69-0.65Q25.76-1.00 25.92-1.42L25.92-1.42L25.92-1.42Q26.08-1.84 26.20-2.12L26.20-2.12L26.20-2.12Q26.32-2.40 26.55-2.93L26.55-2.93L26.55-2.93Q26.78-3.46 26.86-3.65L26.86-3.65L26.86-3.65Q27.62-5.35 31.51-12.61L31.51-12.61L31.51-12.61Q36.83-22.30 41.28-24.52L41.28-24.52L41.28-24.52Q41.93-24.84 42.58-24.84L42.58-24.84L42.58-24.84Q43.33-24.84 43.33-24.14L43.33-24.14L43.33-24.14Q43.33-22.52 42.23-20.59L42.23-20.59L42.23-20.59Q41.12-18.66 39.53-17.04L39.53-17.04L39.53-17.04Q37.94-15.42 36.41-14.20L36.41-14.20L36.41-14.20Q34.88-12.99 33.78-12.37L33.78-12.37L33.78-12.37Q33.61-12.31 33.48-12.12L33.48-12.12L33.48-12.12Q32.29-10.21 31.16-8.01L31.16-8.01L31.16-8.01Q30.02-5.80 29.46-4.54L29.46-4.54L28.92-3.29L28.92-3.29Q28.78-2.89 28.78-2.75L28.78-2.75L28.78-2.75Q28.78-2.51 28.97-2.51L28.97-2.51L28.97-2.51Q29.51-2.51 31.08-4.08ZM43.31-9.50L43.31-9.50L43.31-9.50Q43.55-9.45 43.55-9.34L43.55-9.34L43.55-9.34Q43.55-9.18 43.34-8.96L43.34-8.96L43.34-8.96Q43.04-8.67 42.46-8.18L42.46-8.18L42.46-8.18Q41.88-7.70 41.77-7.59L41.77-7.59L41.39-7.07L41.39-7.07Q40.82-5.48 39.65-3.77L39.65-3.77L39.65-3.77Q38.48-2.05 36.79-0.76L36.79-0.76L36.79-0.76Q35.10 0.54 33.56 0.54L33.56 0.54L33.56 0.54Q31.64 0.54 31.64-1.81L31.64-1.81L31.64-1.81Q31.64-3.89 32.99-6.30L32.99-6.30L32.99-6.30Q34.34-8.72 36.49-10.44L36.49-10.44L36.49-10.44Q38.64-12.15 40.72-12.15L40.72-12.15L40.72-12.15Q42.23-12.15 42.23-10.96L42.23-10.96L42.23-10.96Q42.23-10.31 41.58-9.21L41.58-9.21L41.58-9.21Q41.55-9.18 41.55-9.13L41.55-9.13L41.55-9.13Q41.55-9.07 41.61-9.07L41.61-9.07L41.61-9.07Q42.61-9.48 43.31-9.50ZM40.74-8.86L40.74-8.86L40.74-8.86Q40.96-9.80 40.96-10.31L40.96-10.31L40.96-10.31Q40.96-11.45 40.20-11.45L40.20-11.45L40.20-11.45Q39.15-11.45 37.58-9.50L37.58-9.50L37.58-9.50Q36.02-7.56 34.90-5.13L34.90-5.13L34.90-5.13Q33.78-2.70 33.78-1.30L33.78-1.30L33.78-1.30Q33.78-0.27 34.51-0.27L34.51-0.27L34.51-0.27Q35.64-0.27 37.22-2.54L37.22-2.54L37.22-2.54Q38.80-4.81 39.12-7.10L39.12-7.10L39.12-7.10Q39.10-7.16 39.10-7.26L39.10-7.26L39.10-7.26Q39.10-8.05 40.50-8.67L40.50-8.67L40.50-8.67Q40.72-8.75 40.74-8.86ZM44.85-1.86L44.85-1.86L44.85-1.86Q45.28-2.94 46.08-4.37L46.08-4.37L46.08-4.37Q46.87-5.80 47.47-6.70L47.47-6.70L48.06-7.56L48.06-7.56Q48.44-8.10 48.82-8.10L48.82-8.10L48.82-8.10Q49.11-8.10 49.11-7.80L49.11-7.80L49.03-7.53L49.03-7.53Q48.06-5.08 48.06-3.29L48.06-3.29L48.06-3.29Q48.06-1.86 48.69-0.96L48.69-0.96L48.69-0.96Q49.33-0.05 50.68-0.05L50.68-0.05L50.68-0.05Q52.70-0.05 53.95-1.82L53.95-1.82L53.95-1.82Q55.19-3.59 55.19-5.64L55.19-5.64L55.19-5.64Q55.19-7.40 53.99-10.65L53.99-10.65L53.99-10.65Q52.78-13.90 52.78-15.07L52.78-15.07L52.78-15.07Q52.78-17.58 54.93-19.10L54.93-19.10L54.93-19.10Q57.08-20.63 59.64-20.63L59.64-20.63L59.64-20.63Q60.10-20.63 60.55-20.57L60.55-20.57L60.55-20.57Q60.99-20.52 61.53-20.40L61.53-20.40L61.53-20.40Q62.07-20.28 62.40-20.01L62.40-20.01L62.40-20.01Q62.72-19.74 62.72-19.33L62.72-19.33L62.72-19.33Q62.72-18.79 61.97-17.50L61.97-17.50L61.97-17.50Q61.21-16.20 60.70-15.53L60.70-15.53L60.70-15.53Q60.51-15.39 60.37-15.39L60.37-15.39L60.37-15.39Q60.18-15.39 60.18-15.71L60.18-15.71L60.18-15.71Q60.18-16.47 60.34-17.77L60.34-17.77L60.34-17.77Q60.34-19.87 58.73-19.87L58.73-19.87L58.73-19.87Q57.35-19.87 56.39-18.93L56.39-18.93L56.39-18.93Q55.43-17.98 55.43-16.63L55.43-16.63L55.43-16.63Q55.43-14.85 56.69-11.66L56.69-11.66L56.69-11.66Q57.94-8.48 57.94-6.75L57.94-6.75L57.94-6.75Q57.94-3.51 55.39-1.42L55.39-1.42L55.39-1.42Q52.84 0.68 49.65 0.68L49.65 0.68L49.65 0.68Q49.11 0.68 48.36 0.57L48.36 0.57L48.36 0.57Q47.60 0.46 46.76 0.23L46.76 0.23L46.76 0.23Q45.93 0 45.35-0.45L45.35-0.45L45.35-0.45Q44.77-0.89 44.77-1.46L44.77-1.46L44.77-1.46Q44.77-1.67 44.85-1.86ZM65.26-9.15L65.26-9.15L65.26-9.15Q65.58-9.83 65.58-10.34L65.58-10.34L65.58-10.34Q65.58-10.77 65.31-10.77L65.31-10.77L65.31-10.77Q65.15-10.77 64.95-10.68L64.95-10.68L64.95-10.68Q64.75-10.58 64.64-10.48L64.64-10.48L64.50-10.37L64.50-10.37Q63.67-9.64 62.41-7.71L62.41-7.71L62.41-7.71Q61.16-5.78 61.16-5.24L61.16-5.24L61.16-5.24Q61.16-5.13 61.21-5.13L61.21-5.13L61.21-5.13Q61.37-5.13 61.92-5.40L61.92-5.40L61.92-5.40Q62.48-5.67 63.52-6.67L63.52-6.67L63.52-6.67Q64.56-7.67 65.26-9.15ZM64.04-2.97L64.04-2.97L64.04-2.97Q65.48-4.29 68.15-7.34L68.15-7.34L68.15-7.34Q68.23-7.42 68.28-7.42L68.28-7.42L68.28-7.42Q68.34-7.42 68.34-7.32L68.34-7.32L68.34-7.32Q68.34-6.80 67.93-6.32L67.93-6.32L67.93-6.32Q65.93-4.10 64.40-2.62L64.40-2.62L64.40-2.62Q63.26-1.48 61.70-0.45L61.70-0.45L61.70-0.45Q60.13 0.59 59.10 0.59L59.10 0.59L59.10 0.59Q57.86 0.59 57.86-1.13L57.86-1.13L57.86-1.13Q57.86-4.00 59.98-7.13L59.98-7.13L59.98-7.13Q62.10-10.26 64.88-11.37L64.88-11.37L64.88-11.37Q66.04-11.85 66.99-11.85L66.99-11.85L66.99-11.85Q68.04-11.85 68.04-11.02L68.04-11.02L68.04-11.02Q68.04-9.45 65.83-7.42L65.83-7.42L65.83-7.42Q63.61-5.40 60.86-4.35L60.86-4.35L60.86-4.35Q60.75-4.32 60.67-4.16L60.67-4.16L60.67-4.16Q60.26-3.05 60.26-2.19L60.26-2.19L60.26-2.19Q60.26-1.22 60.99-1.22L60.99-1.22L60.99-1.22Q62.15-1.22 64.04-2.97ZM69.20 0.78L71.93-4.51L71.93-4.51Q72.04-4.72 72.04-4.81L72.04-4.81L71.77-4.62L71.77-4.62Q70.93-3.65 69.84-2.62L69.84-2.62L69.84-2.62Q68.74-1.59 68.07-1.03L68.07-1.03L67.39-0.49L67.39-0.49Q66.28 0.32 65.72 0.32L65.72 0.32L65.72 0.32Q65.18 0.32 65.18-0.46L65.18-0.46L65.18-0.46Q65.18-2.40 66.61-5.05L66.61-5.05L66.61-5.05Q68.04-7.70 70.32-9.69L70.32-9.69L70.32-9.69Q72.60-11.69 74.66-11.69L74.66-11.69L74.66-11.69Q75.06-11.69 75.34-11.60L75.34-11.60L75.34-11.60Q75.63-11.50 75.75-11.42L75.75-11.42L75.75-11.42Q75.87-11.34 75.90-11.34L75.90-11.34L75.90-11.34Q75.95-11.34 76.03-11.42L76.03-11.42L76.03-11.42Q76.19-11.64 76.45-11.96L76.45-11.96L76.45-11.96Q76.71-12.29 77.33-12.84L77.33-12.84L77.33-12.84Q77.95-13.39 78.33-13.39L78.33-13.39L78.33-13.39Q78.52-13.39 78.52-13.12L78.52-13.12L78.52-13.12Q78.52-12.74 78.14-11.99L78.14-11.99L78.14-11.99Q75.25-6.67 74.63-5.56L74.63-5.56L74.63-5.56Q74.41-5.16 73.64-3.82L73.64-3.82L73.64-3.82Q72.87-2.48 72.55-1.92L72.55-1.92L72.55-1.92Q74.25-3.29 75.36-4.29L75.36-4.29L75.36-4.29Q76.55-5.54 78.14-7.34L78.14-7.34L78.14-7.34Q78.22-7.42 78.27-7.42L78.27-7.42L78.27-7.42Q78.33-7.42 78.33-7.32L78.33-7.32L78.33-7.32Q78.33-6.80 77.92-6.32L77.92-6.32L77.92-6.32Q76.73-5.02 75.87-4.10L75.87-4.10L75.87-4.10Q74.74-2.92 71.82-0.65L71.82-0.65L71.12 0.65L71.12 0.65Q65.91 10.23 63.94 13.12L63.94 13.12L63.94 13.12Q63.75 13.42 63.45 13.84L63.45 13.84L63.45 13.84Q63.15 14.26 62.48 14.97L62.48 14.97L62.48 14.97Q61.80 15.69 61.40 15.69L61.40 15.69L61.40 15.69Q60.75 15.69 60.75 13.82L60.75 13.82L60.75 13.82Q60.75 11.07 62.72 7.83L62.72 7.83L62.72 7.83Q64.80 4.40 69.20 0.78L69.20 0.78ZM75.52-10.80L75.52-10.80L75.52-10.80Q75.55-10.83 75.55-10.91L75.55-10.91L75.55-10.91Q75.55-11.10 75.11-11.10L75.11-11.10L75.11-11.10Q74.03-11.10 72.33-9.42L72.33-9.42L72.33-9.42Q70.63-7.75 69.39-5.75L69.39-5.75L69.39-5.75Q68.15-3.75 68.15-2.81L68.15-2.81L68.15-2.81Q68.15-2.43 68.47-2.43L68.47-2.43L68.47-2.43Q68.77-2.43 69.23-2.81L69.23-2.81L69.23-2.81Q69.63-3.16 70.32-3.79L70.32-3.79L70.32-3.79Q71.01-4.43 72.68-6.51L72.68-6.51L72.68-6.51Q74.36-8.59 75.52-10.80ZM63.40 7.78L63.40 7.78L63.40 7.78Q63.18 8.10 62.88 8.63L62.88 8.63L62.88 8.63Q62.59 9.15 62.07 10.44L62.07 10.44L62.07 10.44Q61.56 11.72 61.56 12.58L61.56 12.58L61.56 12.58Q61.56 13.04 61.72 13.04L61.72 13.04L61.72 13.04Q61.86 13.04 62.13 12.78L62.13 12.78L62.13 12.78Q62.40 12.53 62.59 12.26L62.59 12.26L62.77 11.99L62.77 11.99Q65.04 8.48 68.50 2.08L68.50 2.08L68.50 2.08Q65.10 5.02 63.40 7.78ZM81.19-3.59L81.67-4.51L82.51-5.94L82.51-5.94Q82.51-6.02 82.46-6.02L82.46-6.02L82.46-6.02Q82.40-6.02 82.32-5.94L82.32-5.94L82.32-5.94Q81.32-4.78 80.24-3.69L80.24-3.69L80.24-3.69Q79.16-2.59 78.60-2.08L78.60-2.08L78.00-1.57L78.00-1.57Q75.90 0.43 75.09 0.43L75.09 0.43L75.09 0.43Q74.71 0.43 74.71-0.05L74.71-0.05L74.71-0.05Q74.71-0.59 75.15-1.70L75.15-1.70L75.15-1.70Q75.60-2.81 76.06-3.67L76.06-3.67L76.49-4.51L76.49-4.51Q78.76-8.75 79.84-10.18L79.84-10.18L79.84-10.18Q80.38-10.88 81.16-11.35L81.16-11.35L81.16-11.35Q81.94-11.83 82.38-11.83L82.38-11.83L82.38-11.83Q82.65-11.83 82.65-11.64L82.65-11.64L82.65-11.64Q82.65-11.53 82.54-11.34L82.54-11.34L82.54-11.34Q82.48-11.23 81.43-9.54L81.43-9.54L81.43-9.54Q80.38-7.86 79.73-6.64L79.73-6.64L79.73-6.64Q77.95-3.38 77.95-2.89L77.95-2.89L77.95-2.89Q77.95-2.70 78.11-2.70L78.11-2.70L78.11-2.70Q78.35-2.70 78.95-3.19L78.95-3.19L78.95-3.19Q80.70-4.70 82.81-7.26L82.81-7.26L82.81-7.26Q83.97-8.51 85.24-10.50L85.24-10.50L85.24-10.50Q86.10-11.83 87.53-11.83L87.53-11.83L87.53-11.83Q87.78-11.83 87.78-11.61L87.78-11.61L87.56-11.10L87.56-11.10Q87.18-10.42 85.87-8.14L85.87-8.14L85.87-8.14Q84.56-5.86 84.38-5.54L84.38-5.54L84.38-5.54Q83.27-3.59 83.27-2.97L83.27-2.97L83.27-2.97Q83.27-2.73 83.43-2.73L83.43-2.73L83.43-2.73Q83.70-2.73 85.16-4.08L85.16-4.08L85.16-4.08Q86.29-5.21 88.16-7.34L88.16-7.34L88.16-7.34Q88.24-7.42 88.29-7.42L88.29-7.42L88.29-7.42Q88.34-7.42 88.34-7.32L88.34-7.32L88.34-7.32Q88.34-6.80 87.94-6.32L87.94-6.32L87.94-6.32Q85.94-4.10 84.40-2.62L84.40-2.62L84.40-2.62Q83.35-1.62 82.04-0.62L82.04-0.62L82.04-0.62Q80.73 0.38 80.14 0.38L80.14 0.38L80.14 0.38Q79.73 0.38 79.73-0.19L79.73-0.19L79.73-0.19Q79.73-0.51 80.22-1.59L80.22-1.59L80.22-1.59Q80.70-2.67 81.19-3.59L81.19-3.59ZM94.63-2.62L94.63-2.62L94.63-2.62Q91.48 0.35 90.48 0.35L90.48 0.35L90.48 0.35Q90.02 0.35 90.02-0.14L90.02-0.14L90.02-0.14Q90.02-0.43 90.15-0.88L90.15-0.88L90.15-0.88Q90.29-1.32 90.49-1.77L90.49-1.77L90.49-1.77Q90.69-2.21 90.88-2.59L90.88-2.59L90.88-2.59Q91.07-2.97 91.26-3.29L91.26-3.29L91.26-3.29Q91.45-3.62 91.45-3.65L91.45-3.65L91.45-3.65Q91.85-4.37 92.66-5.68L92.66-5.68L92.66-5.68Q93.47-6.99 93.96-7.84L93.96-7.84L93.96-7.84Q94.45-8.69 94.45-8.88L94.45-8.88L94.45-8.88Q94.45-9.02 94.31-9.02L94.31-9.02L93.93-8.88L93.93-8.88Q92.69-7.99 90.96-6.12L90.96-6.12L90.96-6.12Q89.23-4.24 88.13-2.81L88.13-2.81L87.02-1.40L87.02-1.40Q86.67-0.89 86.40-0.57L86.40-0.57L86.40-0.57Q86.13-0.24 85.63 0.07L85.63 0.07L85.63 0.07Q85.13 0.38 84.62 0.38L84.62 0.38L84.62 0.38Q84.24 0.38 84.24 0.16L84.24 0.16L84.24 0.16Q84.24-0.05 84.75-1.09L84.75-1.09L84.75-1.09Q85.27-2.13 85.78-3.08L85.78-3.08L86.29-4.00L88.94-8.64L88.94-8.64Q89.34-9.31 89.60-9.68L89.60-9.68L89.60-9.68Q89.86-10.04 90.31-10.60L90.31-10.60L90.31-10.60Q90.77-11.15 91.30-11.42L91.30-11.42L91.30-11.42Q91.83-11.69 92.42-11.74L92.42-11.74L92.42-11.74Q92.64-11.74 92.64-11.56L92.64-11.56L92.64-11.56Q92.64-11.39 92.56-11.29L92.56-11.29L92.56-11.29Q91.93-10.31 90.65-8.07L90.65-8.07L90.65-8.07Q89.37-5.83 89.02-5.16L89.02-5.16L89.02-5.16Q88.94-5.00 88.94-4.91L88.94-4.91L88.94-4.91Q88.94-4.86 88.99-4.86L88.99-4.86L88.99-4.86Q89.05-4.86 89.26-5.02L89.26-5.02L89.26-5.02Q89.77-5.62 90.60-6.51L90.60-6.51L90.60-6.51Q91.42-7.40 93.39-9.19L93.39-9.19L93.39-9.19Q95.36-10.99 96.63-11.61L96.63-11.61L96.63-11.61Q96.93-11.74 97.20-11.74L97.20-11.74L97.20-11.74Q97.58-11.74 97.58-11.31L97.58-11.31L97.58-11.31Q97.36-10.04 95.50-6.97L95.50-6.97L95.50-6.97Q93.45-3.59 93.45-2.97L93.45-2.97L93.45-2.97Q93.45-2.75 93.64-2.75L93.64-2.75L93.64-2.75Q93.77-2.75 93.95-2.85L93.95-2.85L93.95-2.85Q94.12-2.94 94.34-3.12L94.34-3.12L94.34-3.12Q94.55-3.29 94.70-3.43L94.70-3.43L94.70-3.43Q94.85-3.56 95.09-3.79L95.09-3.79L95.09-3.79Q95.34-4.02 95.39-4.08L95.39-4.08L95.39-4.08Q96.52-5.21 98.39-7.34L98.39-7.34L98.39-7.34Q98.47-7.42 98.52-7.42L98.52-7.42L98.52-7.42Q98.58-7.42 98.58-7.32L98.58-7.32L98.58-7.32Q98.58-6.80 98.17-6.32L98.17-6.32L98.17-6.32Q96.17-4.10 94.63-2.62Z" fill="url(#editing-outline-gradient)"></path></g></g><style>text {
  font-size: 64px;
  font-family: Arial Black;
  dominant-baseline: central;
  text-anchor: middle;
}</style></svg>